<?xml version="1.0" encoding="UTF-8"?>
<svg id="Capa_2" data-name="Capa 2" xmlns="http://www.w3.org/2000/svg" viewBox="0 0 512 512">
  <defs>
    <style>
      .cls-1 {
        fill: #111827;
      }

      .cls-1, .cls-2, .cls-3, .cls-4 {
        stroke-width: 0px;
      }

      .cls-2 {
        fill: #2166e5;
      }

      .cls-3 {
        fill: #11b5a4;
      }

      .cls-4 {
        fill: #f97210;
      }
    </style>
  </defs>
  <g id="Layer_1" data-name="Layer 1">
    <rect class="cls-1" width="512" height="512" rx="113.6" ry="113.6"/>
    <g>
      <g>
        <path class="cls-2" d="M360.63,39.8c5.06-.08,10.15-.09,15.22-.02-54.77,88.89-109.53,177.77-164.38,266.6-6.73,10.78-12.85,22.03-20.33,32.27-3.28-2.52-6.69-4.86-10.09-7.21,10.89-18.87,22.89-37.07,34.01-55.79-21.19-6.61-41.87-15.53-60.01-28.43-6.75-5.29-13.8-10.36-19.18-17.12-16.66-17.82-26.11-41.96-26.5-66.31-.92-24.12,5.6-48.68,19.43-68.56,15.24-22.58,38.99-38.4,64.53-47.15,28.25-9.32,58.82-10.58,88.04-5.68,22.3,3.81,43.34,12.94,62.38,24.98,5.52-9.25,11.31-18.35,16.87-27.57ZM200.76,131.73c-14.69,12.88-15.33,39.65.84,51.65,16.2,12.68,36.63,17.83,55.95,23.79,14.69-24.2,29.64-48.27,44.52-72.35-9.32-7.01-19.83-12.61-31.25-15.23-11.26-3.01-23-3.02-34.52-2.21-12.73,1.69-25.93,5.34-35.53,14.35Z"/>
        <path class="cls-2" d="M329.51,171.13c15.51-24.74,30.7-49.68,46.27-74.4,16.36,20.28,25.12,46.08,26.2,71.99.85,2.57-2.38,2.52-3.93,2.48-22.85-.08-45.7.06-68.55-.07Z"/>
      </g>
      <g>
        <path class="cls-3" d="M320.12,186.89c5.06-.07,10.12-.02,15.2.01-7.3,12.57-15.77,24.47-22.43,37.37,23.09,8.44,45.97,19.23,64.03,36.26,11.63,10.43,20.69,23.7,26.07,38.37,10.11,27.38,9.27,58.69-2.58,85.39-9.47-3.14-20-3.63-29.44-.13-10.98,3.7-20.35,11.9-25.71,22.16-5.71,11.03-6.18,24.41-2.12,36.08-20.79,9.66-43.75,14.35-66.63,14.74-31.76,1-63.62-5.91-92.58-18.81-1.24-.45-2.5-.61-3.8-.46-7.1,11.48-14.08,23.07-21.24,34.52-5.14.04-10.29.06-15.43.05,59.02-95.1,117.95-190.25,176.66-285.53ZM234.89,349.74c-3.7,6.69-8.58,12.73-11.67,19.76,10.01,3.74,20.25,6.95,30.83,8.58,9.77,1.77,19.76,1.39,29.64,1.09,13.87-1.44,28.72-5.58,38-16.69,8.57-9.73,10.19-24.33,5.66-36.23-4.59-10.43-14.87-16.59-24.64-21.49-10.29-5.43-21.49-8.71-32.53-12.2-12.02,18.9-23.51,38.13-35.3,57.19Z"/>
        <path class="cls-3" d="M125.38,305.05c.5-.31,1.47-.92,1.97-1.23,17.12,17.58,36.92,32.21,56.95,46.27-11.35,19.24-23.48,38-35.02,57.13-1.95,2.95-3.48,6.21-5.9,8.8-17.6-10.91-33.31-24.78-47.32-39.99,9.6-23.73,19.77-47.23,29.32-70.99Z"/>
      </g>
      <path class="cls-4" d="M377.69,397.28c9.66-2.17,20.6-.18,28,6.69,10.01,8.59,13.12,24.01,7.39,35.86-4.81,10.62-16.31,18.05-28.04,17.41-15.67.42-30.03-13.49-30.12-29.17-.92-13.96,9.38-27.35,22.78-30.79Z"/>
    </g>
  </g>
</svg>