<?xml version="1.0" encoding="UTF-8" ?>
<!DOCTYPE svg PUBLIC "-//W3C//DTD SVG 1.1//EN" "http://www.w3.org/Graphics/SVG/1.1/DTD/svg11.dtd">
<svg width="377pt" height="388pt" viewBox="0 0 377 388" version="1.1" xmlns="http://www.w3.org/2000/svg">
<g id="#6989bddf">
<path fill="#6989bd" opacity="0.87" d=" M 327.15 0.00 L 327.77 0.00 C 331.52 0.56 335.29 0.87 339.10 0.93 C 341.58 1.08 343.97 1.81 346.29 2.69 C 337.43 2.44 328.54 1.35 319.72 2.68 C 322.16 1.67 324.63 0.83 327.15 0.00 Z" />
</g>
<g id="#bacae3ff">
<path fill="#bacae3" opacity="1.00" d=" M 327.77 0.00 L 338.85 0.00 L 339.10 0.93 C 335.29 0.87 331.52 0.56 327.77 0.00 Z" />
</g>
<g id="#296edefd">
<path fill="#296ede" opacity="1.00" d=" M 319.72 2.68 C 328.54 1.35 337.43 2.44 346.29 2.69 C 359.35 6.34 369.86 17.19 374.11 29.96 C 373.59 31.37 373.55 33.16 374.96 34.07 C 374.99 34.78 375.07 36.20 375.10 36.90 C 375.05 41.62 375.03 46.33 374.98 51.05 C 374.96 51.51 374.91 52.44 374.88 52.90 C 373.43 53.87 373.63 55.74 374.27 57.13 C 369.93 70.91 358.50 82.89 344.28 86.24 C 336.88 86.53 329.42 87.72 322.13 85.92 L 321.20 85.78 C 317.70 84.80 314.28 84.85 310.96 85.93 C 310.66 86.15 310.06 86.58 309.77 86.80 C 295.99 97.78 285.35 112.00 272.32 123.77 C 261.88 130.38 254.49 141.37 243.69 147.71 C 237.91 148.87 233.27 143.93 229.97 139.86 C 230.78 132.49 239.54 128.84 242.22 122.06 C 243.89 119.74 245.65 117.45 247.02 114.93 C 251.14 109.77 256.21 105.47 260.86 100.81 C 262.87 100.37 264.36 98.86 264.80 96.86 C 273.32 87.71 282.78 79.46 290.88 69.91 C 294.19 65.77 293.82 59.25 291.05 54.90 C 290.76 54.44 290.17 53.50 289.88 53.03 C 289.69 51.50 289.30 48.42 289.11 46.89 C 289.13 46.22 289.16 44.90 289.18 44.24 C 289.53 41.10 289.87 37.96 289.95 34.81 C 290.17 34.30 290.60 33.28 290.82 32.77 C 292.50 31.76 293.05 29.71 292.78 27.87 C 296.69 15.69 307.64 6.25 319.72 2.68 M 328.33 20.27 C 320.09 23.31 318.42 36.50 326.16 40.87 C 332.66 46.60 344.97 40.76 344.04 32.02 C 345.42 23.66 335.81 17.55 328.33 20.27 M 326.40 47.47 C 318.04 48.28 307.79 57.46 312.22 65.85 C 326.05 66.19 339.91 66.05 353.75 65.86 C 358.05 52.26 337.68 43.32 326.40 47.47 Z" />
</g>
<g id="#2cafd2ff">
<path fill="#2cafd2" opacity="1.00" d=" M 328.33 20.27 C 335.81 17.55 345.42 23.66 344.04 32.02 C 344.97 40.76 332.66 46.60 326.16 40.87 C 318.42 36.50 320.09 23.31 328.33 20.27 Z" />
</g>
<g id="#7c92b7cf">
<path fill="#7c92b7" opacity="0.81" d=" M 290.82 32.77 C 290.49 30.85 290.84 28.77 292.78 27.87 C 293.05 29.71 292.50 31.76 290.82 32.77 Z" />
</g>
<g id="#626d808d">
<path fill="#626d80" opacity="0.55" d=" M 374.11 29.96 C 375.42 30.93 375.45 32.65 374.96 34.07 C 373.55 33.16 373.59 31.37 374.11 29.96 Z" />
</g>
<g id="#565d6774">
<path fill="#565d67" opacity="0.45" d=" M 374.96 34.07 C 375.77 34.69 376.45 35.44 377.00 36.31 L 377.00 37.00 C 376.53 36.98 375.58 36.93 375.10 36.90 C 375.07 36.20 374.99 34.78 374.96 34.07 Z" />
</g>
<g id="#4b536067">
<path fill="#4b5360" opacity="0.40" d=" M 289.18 44.24 C 289.14 41.10 288.87 37.82 289.95 34.81 C 289.87 37.96 289.53 41.10 289.18 44.24 Z" />
</g>
<g id="#a5bde1fc">
<path fill="#a5bde1" opacity="1.00" d=" M 375.10 36.90 C 375.58 36.93 376.53 36.98 377.00 37.00 L 377.00 50.97 C 376.49 50.99 375.48 51.03 374.98 51.05 C 375.03 46.33 375.05 41.62 375.10 36.90 Z" />
</g>
<g id="#132033fc">
<path fill="#132033" opacity="1.00" d=" M 67.00 44.99 C 67.29 40.09 74.13 39.40 77.90 40.04 C 84.40 44.01 87.91 52.47 95.94 54.03 C 102.64 51.66 105.48 43.06 111.99 41.04 C 116.09 40.94 120.20 40.78 124.30 40.40 C 129.98 44.43 134.35 54.13 142.95 53.02 C 150.95 49.81 153.45 36.85 164.08 40.49 C 165.51 40.65 168.37 40.96 169.80 41.12 C 176.22 44.10 179.33 54.52 187.93 53.01 C 194.44 50.43 197.41 42.55 203.73 40.29 C 207.21 40.66 210.70 40.69 214.20 40.39 C 221.13 43.28 224.04 54.51 233.04 53.02 C 239.29 51.26 241.79 42.70 247.98 40.99 C 251.99 40.97 256.01 40.97 260.03 40.99 C 266.04 43.36 268.89 53.11 276.72 53.37 C 285.92 63.25 272.51 70.75 266.62 77.66 C 199.39 144.53 134.52 213.61 67.03 280.18 C 66.96 201.78 67.02 123.38 67.00 44.99 M 160.55 65.27 C 155.36 69.32 149.44 72.22 143.01 73.64 C 141.97 72.01 139.03 72.01 137.99 73.64 C 130.45 72.02 123.72 68.00 117.95 62.97 C 113.29 66.67 108.56 70.34 102.90 72.41 C 101.09 71.81 97.12 70.94 96.32 72.93 C 94.88 72.86 93.44 72.91 92.01 73.06 L 91.06 73.00 C 90.99 127.68 90.89 182.38 91.12 237.06 L 92.07 236.79 C 93.78 237.40 94.39 236.83 93.91 235.10 C 94.11 234.94 94.51 234.60 94.71 234.44 C 106.65 223.94 116.95 211.71 128.21 200.53 C 130.28 197.23 116.64 199.69 113.76 199.24 C 112.24 197.92 110.91 196.42 109.53 194.95 C 110.64 193.32 110.66 190.71 109.54 189.08 C 111.09 187.47 112.47 185.43 114.67 184.66 C 124.47 185.18 137.32 185.93 144.72 183.91 C 148.22 180.36 151.69 176.77 155.42 173.46 C 155.61 173.37 155.98 173.18 156.17 173.09 C 157.43 172.81 159.32 169.78 157.04 170.02 C 143.19 170.70 127.36 168.45 114.74 171.19 C 112.75 170.11 111.02 168.64 109.57 166.93 C 110.53 164.89 110.55 162.12 109.56 160.09 C 110.70 158.72 111.95 157.34 113.65 156.67 C 132.75 156.70 154.71 158.40 172.06 155.73 C 186.50 144.00 198.30 128.24 212.25 115.55 C 213.46 116.65 214.03 113.91 214.12 113.07 C 180.34 113.06 146.55 112.73 112.78 113.24 C 111.57 112.27 110.59 111.07 109.58 109.92 C 110.53 107.87 110.55 105.11 109.56 103.09 C 110.69 101.71 112.00 100.47 113.57 99.60 C 151.66 100.57 189.86 99.73 227.99 99.97 L 228.01 99.00 C 228.24 98.75 228.70 98.25 228.94 98.00 C 239.87 88.93 249.20 77.59 258.97 67.22 C 258.67 67.01 258.07 66.58 257.78 66.37 C 257.98 64.30 253.05 60.36 253.32 63.03 C 248.06 67.87 241.85 71.56 234.98 73.58 C 233.03 72.25 230.04 72.28 228.06 73.52 C 222.45 72.11 217.36 69.37 212.50 66.29 C 213.39 64.86 211.32 62.57 209.83 63.37 C 207.91 62.17 206.46 64.07 205.20 65.23 C 200.55 69.86 194.19 71.96 188.01 73.64 C 186.96 72.02 184.02 72.02 182.99 73.65 C 175.79 71.81 169.13 68.36 163.81 63.08 C 163.36 60.37 159.28 63.47 160.55 65.27 Z" />
</g>
<g id="#4d525df6">
<path fill="#4d525d" opacity="0.96" d=" M 111.99 41.04 C 113.77 38.35 120.64 40.47 124.30 40.40 C 120.20 40.78 116.09 40.94 111.99 41.04 Z" />
</g>
<g id="#25282d7d">
<path fill="#25282d" opacity="0.49" d=" M 164.08 40.49 C 165.43 39.18 169.56 38.77 169.80 41.12 C 168.37 40.96 165.51 40.65 164.08 40.49 Z" />
</g>
<g id="#4a4f5bf6">
<path fill="#4a4f5b" opacity="0.96" d=" M 203.73 40.29 C 207.20 40.06 210.75 39.72 214.20 40.39 C 210.70 40.69 207.21 40.66 203.73 40.29 Z" />
</g>
<g id="#4e545fec">
<path fill="#4e545f" opacity="0.93" d=" M 247.98 40.99 C 249.12 39.68 258.70 38.42 260.03 40.99 C 256.01 40.97 251.99 40.97 247.98 40.99 Z" />
</g>
<g id="#393f46bf">
<path fill="#393f46" opacity="0.75" d=" M 66.03 45.02 L 67.00 44.99 C 67.02 123.38 66.96 201.78 67.03 280.18 L 66.06 279.92 C 65.93 201.62 66.01 123.32 66.03 45.02 Z" />
</g>
<g id="#4a505a62">
<path fill="#4a505a" opacity="0.38" d=" M 289.11 46.89 C 289.30 48.42 289.69 51.50 289.88 53.03 C 289.69 51.50 289.30 48.42 289.11 46.89 Z" />
</g>
<g id="#2cb0d1ff">
<path fill="#2cb0d1" opacity="1.00" d=" M 326.40 47.47 C 337.68 43.32 358.05 52.26 353.75 65.86 C 339.91 66.05 326.05 66.19 312.22 65.85 C 307.79 57.46 318.04 48.28 326.40 47.47 Z" />
</g>
<g id="#5d6c8291">
<path fill="#5d6c82" opacity="0.57" d=" M 374.27 57.13 C 373.63 55.74 373.43 53.87 374.88 52.90 C 375.40 54.32 375.38 55.98 374.27 57.13 Z" />
</g>
<g id="#859dc5de">
<path fill="#859dc5" opacity="0.87" d=" M 291.05 54.90 C 293.82 59.25 294.19 65.77 290.88 69.91 C 292.22 64.98 291.53 59.90 291.05 54.90 Z" />
</g>
<g id="#41454ca3">
<path fill="#41454c" opacity="0.64" d=" M 160.55 65.27 C 159.28 63.47 163.36 60.37 163.81 63.08 C 162.76 63.86 161.68 64.61 160.55 65.27 Z" />
</g>
<g id="#40444aa1">
<path fill="#40444a" opacity="0.63" d=" M 253.32 63.03 C 253.05 60.36 257.98 64.30 257.78 66.37 C 256.21 65.36 254.73 64.23 253.32 63.03 Z" />
</g>
<g id="#454a4e96">
<path fill="#454a4e" opacity="0.59" d=" M 209.83 63.37 C 211.32 62.57 213.39 64.86 212.50 66.29 C 211.13 65.87 210.09 64.79 209.83 63.37 Z" />
</g>
<g id="#373c42a5">
<path fill="#373c42" opacity="0.65" d=" M 96.32 72.93 C 97.12 70.94 101.09 71.81 102.90 72.41 C 101.40 73.09 99.71 73.08 98.11 73.32 C 97.66 73.22 96.77 73.02 96.32 72.93 Z" />
</g>
<g id="#343d48e8">
<path fill="#343d48" opacity="0.91" d=" M 91.06 73.00 L 92.01 73.06 C 92.03 127.06 91.91 181.05 92.07 235.05 C 92.07 235.48 92.07 236.36 92.07 236.79 L 91.12 237.06 C 90.89 182.38 90.99 127.68 91.06 73.00 Z" />
</g>
<g id="#1b1c1d25">
<path fill="#1b1c1d" opacity="0.15" d=" M 92.01 73.06 C 93.44 72.91 94.88 72.86 96.32 72.93 C 96.77 73.02 97.66 73.22 98.11 73.32 C 96.86 73.55 94.37 74.02 93.12 74.25 C 93.04 127.31 92.67 180.40 93.30 233.45 C 93.65 233.70 94.36 234.19 94.71 234.44 C 94.51 234.60 94.11 234.94 93.91 235.10 C 93.45 235.09 92.53 235.06 92.07 235.05 C 91.91 181.05 92.03 127.06 92.01 73.06 Z" />
</g>
<g id="#585c5f83">
<path fill="#585c5f" opacity="0.51" d=" M 137.99 73.64 C 139.03 72.01 141.97 72.01 143.01 73.64 C 141.75 73.64 139.24 73.64 137.99 73.64 Z" />
</g>
<g id="#58595c7d">
<path fill="#58595c" opacity="0.49" d=" M 182.99 73.65 C 184.02 72.02 186.96 72.02 188.01 73.64 C 186.75 73.64 184.24 73.65 182.99 73.65 Z" />
</g>
<g id="#51535779">
<path fill="#515357" opacity="0.47" d=" M 228.06 73.52 C 230.04 72.28 233.03 72.25 234.98 73.58 C 232.83 74.66 230.25 74.30 228.06 73.52 Z" />
</g>
<g id="#9eb9e4ff">
<path fill="#9eb9e4" opacity="1.00" d=" M 310.96 85.93 C 314.28 84.85 317.70 84.80 321.20 85.78 C 317.76 85.80 314.38 85.87 310.96 85.93 Z" />
</g>
<g id="#282b3034">
<path fill="#282b30" opacity="0.20" d=" M 309.77 86.80 C 310.06 86.58 310.66 86.15 310.96 85.93 C 314.38 85.87 317.76 85.80 321.20 85.78 L 322.13 85.92 L 321.98 86.99 C 317.90 86.92 313.83 86.86 309.77 86.80 Z" />
</g>
<g id="#8095b8ce">
<path fill="#8095b8" opacity="0.81" d=" M 322.13 85.92 C 329.42 87.72 336.88 86.53 344.28 86.24 C 337.60 90.20 329.24 87.59 321.98 86.99 L 322.13 85.92 Z" />
</g>
<g id="#707d95a4">
<path fill="#707d95" opacity="0.64" d=" M 260.86 100.81 C 260.99 98.64 262.64 97.02 264.80 96.86 C 264.36 98.86 262.87 100.37 260.86 100.81 Z" />
</g>
<g id="#27272938">
<path fill="#272729" opacity="0.22" d=" M 114.89 98.84 C 152.57 96.76 190.99 98.65 228.94 98.00 C 228.70 98.25 228.24 98.75 228.01 99.00 C 190.30 98.90 152.60 99.20 114.89 98.84 Z" />
</g>
<g id="#303946fe">
<path fill="#303946" opacity="1.00" d=" M 113.57 99.60 C 113.90 99.41 114.56 99.03 114.89 98.84 C 152.60 99.20 190.30 98.90 228.01 99.00 L 227.99 99.97 C 189.86 99.73 151.66 100.57 113.57 99.60 Z" />
</g>
<g id="#3c3f437d">
<path fill="#3c3f43" opacity="0.49" d=" M 109.58 109.92 C 108.22 108.12 108.05 104.77 109.56 103.09 C 110.55 105.11 110.53 107.87 109.58 109.92 Z" />
</g>
<g id="#393b3f6c">
<path fill="#393b3f" opacity="0.42" d=" M 304.35 108.58 C 306.45 104.52 307.28 118.73 305.06 117.99 C 304.94 114.84 305.21 111.65 304.35 108.58 Z" />
</g>
<g id="#142033fb">
<path fill="#142033" opacity="1.00" d=" M 226.92 187.98 C 251.39 160.35 279.10 135.47 304.35 108.58 C 305.21 111.65 304.94 114.84 305.06 117.99 C 305.03 123.32 305.03 128.67 304.98 134.00 C 304.99 138.65 304.73 143.34 305.13 147.99 C 305.72 151.31 305.09 154.65 305.01 157.99 C 304.92 161.99 304.90 166.00 304.96 170.01 C 303.42 175.32 309.96 191.29 299.31 188.80 C 293.18 188.19 286.71 186.95 280.67 188.72 C 280.49 188.55 280.13 188.21 279.95 188.03 C 280.06 176.31 280.00 164.59 279.96 152.86 C 281.00 150.40 277.09 150.23 277.98 152.76 C 270.03 160.31 262.36 168.14 254.64 175.93 C 252.74 176.46 252.23 179.54 254.87 178.93 C 259.46 178.81 263.20 183.51 261.98 187.99 C 250.29 188.01 238.61 188.00 226.92 187.98 Z" />
</g>
<g id="#3e444cb6">
<path fill="#3e444c" opacity="0.71" d=" M 112.78 113.24 C 146.55 112.73 180.34 113.06 214.12 113.07 C 214.03 113.91 213.46 116.65 212.25 115.55 C 211.91 114.41 211.16 113.94 210.00 114.15 C 187.59 115.30 165.13 112.78 142.70 114.44 C 132.75 113.33 122.53 116.39 112.78 113.24 Z" />
</g>
<g id="#6a819fbb">
<path fill="#6a819f" opacity="0.73" d=" M 237.59 124.70 C 240.08 120.87 243.61 117.91 247.02 114.93 C 245.65 117.45 243.89 119.74 242.22 122.06 C 240.69 122.97 239.15 123.86 237.59 124.70 Z" />
</g>
<g id="#2c81bff7">
<path fill="#2c81bf" opacity="0.97" d=" M 237.59 124.70 C 239.15 123.86 240.69 122.97 242.22 122.06 C 239.54 128.84 230.78 132.49 229.97 139.86 C 233.27 143.93 237.91 148.87 243.69 147.71 C 254.49 141.37 261.88 130.38 272.32 123.77 C 251.33 145.60 229.66 166.78 208.19 188.15 C 208.00 185.87 210.07 181.15 206.26 181.34 C 200.24 180.92 196.78 175.11 194.73 170.02 C 194.97 169.42 195.43 168.21 195.67 167.60 C 208.85 152.58 223.89 139.27 237.59 124.70 Z" />
</g>
<g id="#5e646bc8">
<path fill="#5e646b" opacity="0.78" d=" M 114.98 127.99 C 132.10 125.69 153.28 127.59 171.96 127.03 L 172.02 127.97 C 153.01 128.05 134.00 127.98 114.98 127.99 Z" />
</g>
<g id="#132032fe">
<path fill="#132032" opacity="1.00" d=" M 109.94 132.24 C 110.38 129.78 112.45 127.94 114.98 127.99 C 134.00 127.98 153.01 128.05 172.02 127.97 C 180.42 127.60 179.18 142.74 171.02 142.03 C 152.67 141.99 134.32 141.97 115.98 142.02 C 113.17 142.34 110.38 140.66 109.94 137.76 C 110.03 135.92 110.03 134.08 109.94 132.24 Z" />
<path fill="#132032" opacity="1.00" d=" M 279.93 206.83 C 281.68 206.83 285.18 206.85 286.93 206.86 C 290.29 206.99 293.61 207.01 296.99 206.98 C 299.75 206.93 302.52 206.82 305.30 206.68 C 304.90 215.03 305.19 223.41 304.79 231.77 C 303.51 249.21 303.56 266.86 304.58 284.30 C 304.86 285.97 305.19 287.64 305.73 289.26 C 307.04 293.44 310.59 296.92 314.77 298.22 C 321.16 299.51 327.71 298.91 334.19 298.87 C 352.10 302.84 367.74 317.17 370.32 335.75 C 370.16 340.88 370.07 346.04 370.09 351.19 C 366.78 368.50 352.51 382.76 335.30 386.35 C 331.82 386.12 328.33 385.86 325.03 387.06 C 305.22 386.85 287.69 372.07 282.75 353.13 C 283.38 351.72 283.45 350.02 282.36 348.83 C 280.51 344.63 277.86 340.24 273.23 338.78 C 247.14 337.14 220.85 338.14 194.69 338.27 C 195.38 313.85 194.80 289.41 195.02 264.99 C 200.45 264.82 207.95 263.70 210.58 269.81 C 209.40 271.39 209.37 273.62 210.58 275.20 C 209.52 276.60 208.29 277.87 207.08 279.16 C 205.66 289.98 204.81 302.29 206.73 313.27 C 223.03 314.31 239.94 314.77 256.29 313.35 C 257.63 313.06 258.96 312.73 260.30 312.39 C 269.55 310.60 276.51 302.93 279.04 294.01 C 281.29 265.21 279.41 235.84 279.93 206.83 M 315.01 326.06 C 313.30 326.44 313.29 333.55 315.01 333.94 C 316.84 340.57 325.59 342.39 331.37 340.40 C 339.90 336.53 340.49 321.98 331.03 318.98 C 324.84 315.55 317.03 319.58 315.01 326.06 M 319.98 345.98 C 311.69 346.68 300.93 356.36 304.98 363.99 L 305.04 364.94 C 318.88 364.52 336.11 366.25 347.78 363.98 C 351.69 355.86 340.75 346.60 333.05 345.99 C 330.99 343.56 321.71 344.61 319.98 345.98 Z" />
</g>
<g id="#42454a89">
<path fill="#42454a" opacity="0.54" d=" M 109.94 137.76 C 108.12 137.32 108.12 132.68 109.94 132.24 C 110.03 134.08 110.03 135.92 109.94 137.76 Z" />
</g>
<g id="#292d316f">
<path fill="#292d31" opacity="0.44" d=" M 304.98 134.00 C 306.45 135.99 307.17 145.49 305.13 147.99 C 304.73 143.34 304.99 138.65 304.98 134.00 Z" />
</g>
<g id="#747981d8">
<path fill="#747981" opacity="0.85" d=" M 115.98 142.02 C 134.32 141.97 152.67 141.99 171.02 142.03 C 154.84 143.66 132.16 143.67 115.98 142.02 Z" />
</g>
<g id="#848e97f3">
<path fill="#848e97" opacity="0.95" d=" M 277.98 152.76 C 277.09 150.23 281.00 150.40 279.96 152.86 L 279.00 153.19 L 277.98 152.76 Z" />
</g>
<g id="#31363c9f">
<path fill="#31363c" opacity="0.62" d=" M 279.00 153.19 L 279.96 152.86 C 280.00 164.59 280.06 176.31 279.95 188.03 C 277.84 178.07 279.41 164.65 279.00 153.19 Z" />
</g>
<g id="#0c0d0f20">
<path fill="#0c0d0f" opacity="0.13" d=" M 115.76 155.75 C 133.35 154.02 151.45 155.16 169.21 155.36 C 151.42 156.57 133.57 155.99 115.76 155.75 Z" />
</g>
<g id="#393f48c2">
<path fill="#393f48" opacity="0.76" d=" M 169.21 155.36 C 170.16 155.45 171.11 155.57 172.06 155.73 C 154.71 158.40 132.75 156.70 113.65 156.67 C 114.18 156.44 115.23 155.98 115.76 155.75 C 133.57 155.99 151.42 156.57 169.21 155.36 Z" />
</g>
<g id="#292c316c">
<path fill="#292c31" opacity="0.42" d=" M 305.01 157.99 C 306.28 159.02 307.62 168.88 304.96 170.01 C 304.90 166.00 304.92 161.99 305.01 157.99 Z" />
</g>
<g id="#3a3d427b">
<path fill="#3a3d42" opacity="0.48" d=" M 109.57 166.93 C 108.20 165.15 108.10 161.77 109.56 160.09 C 110.55 162.12 110.53 164.89 109.57 166.93 Z" />
</g>
<g id="#698998bd">
<path fill="#698998" opacity="0.74" d=" M 189.72 173.88 C 191.30 171.43 193.35 169.36 195.67 167.60 C 195.43 168.21 194.97 169.42 194.73 170.02 C 193.15 171.42 191.48 172.72 189.72 173.88 Z" />
</g>
<g id="#4b5460f2">
<path fill="#4b5460" opacity="0.95" d=" M 114.74 171.19 C 127.36 168.45 143.19 170.70 157.04 170.02 C 159.32 169.78 157.43 172.81 156.17 173.09 C 156.04 172.61 155.78 171.66 155.65 171.19 C 142.02 170.72 128.37 171.01 114.74 171.19 Z" />
</g>
<g id="#2494b0fb">
<path fill="#2494b0" opacity="1.00" d=" M 189.72 173.88 C 191.48 172.72 193.15 171.42 194.73 170.02 C 196.78 175.11 200.24 180.92 206.26 181.34 C 210.07 181.15 208.00 185.87 208.19 188.15 C 193.55 203.29 179.38 218.89 163.97 233.29 C 164.30 230.44 165.18 226.81 161.81 225.29 C 155.17 224.73 156.61 213.50 148.68 215.58 C 161.93 201.30 175.96 187.71 189.72 173.88 Z" />
</g>
<g id="#2b2d304f">
<path fill="#2b2d30" opacity="0.31" d=" M 114.74 171.19 C 128.37 171.01 142.02 170.72 155.65 171.19 C 155.78 171.66 156.04 172.61 156.17 173.09 C 155.98 173.18 155.61 173.37 155.42 173.46 C 142.96 169.47 127.97 174.05 114.74 171.19 Z" />
</g>
<g id="#5e63699a">
<path fill="#5e6369" opacity="0.60" d=" M 254.87 178.93 C 252.23 179.54 252.74 176.46 254.64 175.93 C 254.70 176.68 254.81 178.18 254.87 178.93 Z" />
</g>
<g id="#35383d82">
<path fill="#35383d" opacity="0.51" d=" M 114.67 184.66 C 124.45 182.58 134.77 184.79 144.72 183.91 C 137.32 185.93 124.47 185.18 114.67 184.66 Z" />
</g>
<g id="#474f5aee">
<path fill="#474f5a" opacity="0.93" d=" M 226.00 188.98 C 226.23 188.73 226.69 188.23 226.92 187.98 C 238.61 188.00 250.29 188.01 261.98 187.99 C 261.74 188.25 261.25 188.75 261.00 189.00 C 255.66 189.00 250.33 188.94 245.00 189.01 C 243.33 189.02 241.66 189.02 240.00 189.00 C 235.32 188.95 230.67 188.99 226.00 188.98 Z" />
</g>
<g id="#515b65ff">
<path fill="#515b65" opacity="1.00" d=" M 280.67 188.72 C 286.71 186.95 293.18 188.19 299.31 188.80 C 293.09 188.95 286.88 188.99 280.67 188.72 Z" />
</g>
<g id="#393c4183">
<path fill="#393c41" opacity="0.51" d=" M 109.53 194.95 C 108.15 193.17 108.15 191.21 109.54 189.08 C 110.66 190.71 110.64 193.32 109.53 194.95 Z" />
</g>
<g id="#2426283f">
<path fill="#242628" opacity="0.25" d=" M 226.00 188.98 C 230.67 188.99 235.32 188.95 240.00 189.00 C 238.01 190.35 228.29 191.35 226.00 188.98 Z" />
</g>
<g id="#2527293f">
<path fill="#252729" opacity="0.25" d=" M 245.00 189.01 C 250.33 188.94 255.66 189.00 261.00 189.00 C 258.69 190.24 247.22 191.49 245.00 189.01 Z" />
</g>
<g id="#2527283f">
<path fill="#252728" opacity="0.25" d=" M 280.67 188.72 C 286.88 188.99 293.09 188.95 299.31 188.80 C 295.11 190.04 284.65 192.04 280.67 188.72 Z" />
</g>
<g id="#383c4292">
<path fill="#383c42" opacity="0.57" d=" M 113.76 199.24 C 116.64 199.69 130.28 197.23 128.21 200.53 C 123.45 199.52 118.48 200.30 113.76 199.24 Z" />
</g>
<g id="#1d1e2032">
<path fill="#1d1e20" opacity="0.20" d=" M 209.01 205.98 C 210.69 204.69 220.17 203.35 222.19 206.25 C 217.79 206.10 213.40 206.04 209.01 205.98 Z" />
</g>
<g id="#1d1f2134">
<path fill="#1d1f21" opacity="0.20" d=" M 225.81 206.23 C 228.15 204.51 237.50 203.72 240.02 205.98 C 235.28 206.03 230.54 205.96 225.81 206.23 Z" />
</g>
<g id="#5f6874fa">
<path fill="#5f6874" opacity="0.98" d=" M 209.01 205.98 C 213.40 206.04 217.79 206.10 222.19 206.25 L 222.21 206.90 C 217.79 206.94 213.39 206.95 208.99 206.99 L 209.01 205.98 Z" />
</g>
<g id="#2c313677">
<path fill="#2c3136" opacity="0.47" d=" M 222.19 206.25 C 223.39 205.42 224.60 205.41 225.81 206.23 L 225.81 206.91 C 224.60 206.98 223.40 206.97 222.21 206.90 L 222.19 206.25 Z" />
</g>
<g id="#5e6872ff">
<path fill="#5e6872" opacity="1.00" d=" M 225.81 206.23 C 230.54 205.96 235.28 206.03 240.02 205.98 L 239.96 206.90 C 235.24 207.13 230.52 207.01 225.81 206.91 L 225.81 206.23 Z" />
</g>
<g id="#132032fc">
<path fill="#132032" opacity="1.00" d=" M 239.96 206.90 C 241.31 206.84 242.63 206.09 243.98 206.45 C 245.21 207.34 246.81 207.32 248.10 206.56 L 248.92 206.64 C 250.19 206.62 252.73 206.59 254.00 206.58 C 261.84 204.63 265.63 217.47 257.93 219.99 C 242.07 220.88 225.33 218.40 209.93 220.93 C 204.98 223.41 207.41 229.89 207.25 234.25 C 208.63 234.44 211.40 234.82 212.78 235.01 C 227.50 235.03 242.21 234.94 256.93 235.02 C 263.28 236.25 263.64 245.48 258.73 248.79 C 251.57 249.85 244.37 249.15 237.19 249.53 C 231.37 249.06 225.49 248.64 219.69 249.53 C 218.43 249.72 217.21 249.20 215.97 249.12 C 209.64 248.80 203.31 248.98 196.99 249.01 C 196.50 248.99 195.51 248.96 195.01 248.95 C 195.02 239.31 194.93 229.68 195.03 220.04 C 199.15 215.76 203.27 209.20 208.99 206.99 C 213.39 206.95 217.79 206.94 222.21 206.90 C 223.40 206.97 224.60 206.98 225.81 206.91 C 230.52 207.01 235.24 207.13 239.96 206.90 Z" />
</g>
<g id="#2d313574">
<path fill="#2d3135" opacity="0.45" d=" M 243.98 206.45 C 245.38 205.36 246.75 205.39 248.10 206.56 C 246.81 207.32 245.21 207.34 243.98 206.45 Z" />
</g>
<g id="#2a2e326d">
<path fill="#2a2e32" opacity="0.43" d=" M 248.92 206.64 C 249.99 205.07 252.95 204.87 254.00 206.58 C 252.73 206.59 250.19 206.62 248.92 206.64 Z" />
</g>
<g id="#2a2d3264">
<path fill="#2a2d32" opacity="0.39" d=" M 279.93 206.83 C 281.31 204.85 283.65 204.62 286.95 206.14 L 286.93 206.86 C 285.18 206.85 281.68 206.83 279.93 206.83 Z" />
</g>
<g id="#6c7480f9">
<path fill="#6c7480" opacity="0.98" d=" M 286.95 206.14 C 290.31 206.02 293.64 205.94 297.02 205.96 L 296.99 206.98 C 293.61 207.01 290.29 206.99 286.93 206.86 L 286.95 206.14 Z" />
</g>
<g id="#2b2d3264">
<path fill="#2b2d32" opacity="0.39" d=" M 297.02 205.96 C 299.79 206.00 302.56 206.08 305.30 206.68 C 302.52 206.82 299.75 206.93 296.99 206.98 L 297.02 205.96 Z" />
</g>
<g id="#383d43a4">
<path fill="#383d43" opacity="0.64" d=" M 279.04 294.01 C 279.59 264.97 277.76 235.75 279.93 206.83 C 279.41 235.84 281.29 265.21 279.04 294.01 Z" />
</g>
<g id="#15171a3c">
<path fill="#15171a" opacity="0.24" d=" M 305.30 206.68 C 306.86 233.97 305.80 261.78 305.73 289.26 C 305.19 287.64 304.86 285.97 304.58 284.30 C 305.35 266.80 305.02 249.28 304.79 231.77 C 305.19 223.41 304.90 215.03 305.30 206.68 Z" />
</g>
<g id="#20a99efc">
<path fill="#20a99e" opacity="1.00" d=" M 148.68 215.58 C 156.61 213.50 155.17 224.73 161.81 225.29 C 165.18 226.81 164.30 230.44 163.97 233.29 C 162.14 235.30 160.20 237.22 158.28 239.14 C 154.85 241.74 151.32 244.42 149.15 248.22 C 145.64 252.89 141.35 256.91 137.29 261.09 C 135.07 262.28 133.29 264.07 132.07 266.26 C 117.15 282.94 99.89 297.53 86.00 315.01 C 84.94 316.89 84.41 319.01 83.78 321.07 C 77.75 311.00 68.08 303.48 56.77 300.37 C 58.29 300.08 59.81 299.77 61.31 299.41 C 64.88 298.95 68.07 297.10 70.59 294.58 C 97.07 268.70 122.36 241.66 148.68 215.58 Z" />
</g>
<g id="#1e222888">
<path fill="#1e2228" opacity="0.53" d=" M 195.01 248.95 C 194.04 242.19 192.22 226.78 195.03 220.04 C 194.93 229.68 195.02 239.31 195.01 248.95 Z" />
</g>
<g id="#343941a5">
<path fill="#343941" opacity="0.65" d=" M 209.93 220.93 C 225.33 218.40 242.07 220.88 257.93 219.99 C 244.05 222.29 225.60 220.46 209.93 220.93 Z" />
</g>
<g id="#1f2834d7">
<path fill="#1f2834" opacity="0.84" d=" M 304.58 284.30 C 303.56 266.86 303.51 249.21 304.79 231.77 C 305.02 249.28 305.35 266.80 304.58 284.30 Z" />
</g>
<g id="#798087d2">
<path fill="#798087" opacity="0.82" d=" M 207.25 234.25 C 208.88 233.36 211.31 233.38 212.89 234.42 L 212.78 235.01 C 211.40 234.82 208.63 234.44 207.25 234.25 Z" />
</g>
<g id="#181a1b2f">
<path fill="#181a1b" opacity="0.18" d=" M 212.89 234.42 C 227.53 233.55 242.31 234.08 257.00 234.07 L 256.93 235.02 C 242.21 234.94 227.50 235.03 212.78 235.01 L 212.89 234.42 Z" />
</g>
<g id="#a5acb6f0">
<path fill="#a5acb6" opacity="0.94" d=" M 92.07 235.05 C 92.53 235.06 93.45 235.09 93.91 235.10 C 94.39 236.83 93.78 237.40 92.07 236.79 C 92.07 236.36 92.07 235.48 92.07 235.05 Z" />
</g>
<g id="#6a9c9ad2">
<path fill="#6a9c9a" opacity="0.82" d=" M 149.15 248.22 C 151.32 244.42 154.85 241.74 158.28 239.14 C 156.32 243.11 152.68 245.75 149.15 248.22 Z" />
</g>
<g id="#39424df6">
<path fill="#39424d" opacity="0.96" d=" M 175.35 239.58 C 175.75 239.45 176.56 239.21 176.97 239.08 C 177.06 269.72 176.94 300.36 177.02 331.01 C 178.08 334.71 177.74 337.04 175.99 337.99 C 175.54 305.21 176.92 272.27 175.35 239.58 Z" />
</g>
<g id="#0c0d0f2a">
<path fill="#0c0d0f" opacity="0.16" d=" M 176.97 239.08 L 177.95 238.98 C 178.04 269.64 178.03 300.31 177.96 330.97 L 177.02 331.01 C 176.94 300.36 177.06 269.72 176.97 239.08 Z" />
</g>
<g id="#132132fd">
<path fill="#132132" opacity="1.00" d=" M 98.18 318.28 C 123.69 291.88 149.80 265.86 175.35 239.58 C 176.92 272.27 175.54 305.21 175.99 337.99 C 151.66 338.01 127.33 337.99 103.01 338.00 C 101.83 337.71 101.50 336.66 102.01 334.83 C 102.19 333.52 102.15 332.16 101.51 330.98 C 100.14 326.81 97.51 322.89 98.18 318.28 M 163.34 269.57 C 148.82 282.50 136.24 297.42 122.61 311.25 C 122.48 311.67 122.21 312.51 122.07 312.93 C 136.04 313.09 150.02 313.03 164.00 312.96 C 167.21 304.38 163.70 289.42 165.02 279.00 C 164.76 277.70 165.93 265.91 163.34 269.57 Z" />
</g>
<g id="#707780d6">
<path fill="#707780" opacity="0.84" d=" M 196.99 249.01 C 203.31 248.98 209.64 248.80 215.97 249.12 C 212.14 250.00 200.89 251.64 196.99 249.01 Z" />
</g>
<g id="#191b1d32">
<path fill="#191b1d" opacity="0.20" d=" M 219.69 249.53 C 225.49 248.64 231.37 249.06 237.19 249.53 C 231.37 250.19 225.50 250.22 219.69 249.53 Z" />
</g>
<g id="#7a9c99bf">
<path fill="#7a9c99" opacity="0.75" d=" M 132.07 266.26 C 133.29 264.07 135.07 262.28 137.29 261.09 C 136.29 263.46 134.46 265.31 132.07 266.26 Z" />
</g>
<g id="#20242a8a">
<path fill="#20242a" opacity="0.54" d=" M 194.69 338.27 C 193.55 314.39 193.22 287.54 195.02 264.99 C 194.80 289.41 195.38 313.85 194.69 338.27 Z" />
</g>
<g id="#373b3f86">
<path fill="#373b3f" opacity="0.53" d=" M 163.34 269.57 C 165.93 265.91 164.76 277.70 165.02 279.00 C 163.70 289.42 167.21 304.38 164.00 312.96 L 163.97 311.99 C 163.64 297.86 164.84 283.64 163.34 269.57 Z" />
</g>
<g id="#2f32377d">
<path fill="#2f3237" opacity="0.49" d=" M 210.58 269.81 C 210.58 271.16 210.58 273.85 210.58 275.20 C 209.37 273.62 209.40 271.39 210.58 269.81 Z" />
</g>
<g id="#282f38cb">
<path fill="#282f38" opacity="0.80" d=" M 206.73 313.27 C 204.81 302.29 205.66 289.98 207.08 279.16 C 206.83 284.01 207.12 288.85 207.34 293.71 C 207.06 300.22 207.06 306.75 206.73 313.27 Z" />
</g>
<g id="#0b0d0f2c">
<path fill="#0b0d0f" opacity="0.17" d=" M 207.34 293.71 C 208.67 299.68 207.68 305.87 208.08 311.93 C 225.48 312.32 242.90 311.52 260.30 312.39 C 258.96 312.73 257.63 313.06 256.29 313.35 C 239.78 312.85 223.24 312.76 206.73 313.27 C 207.06 306.75 207.06 300.22 207.34 293.71 Z" />
</g>
<g id="#21282b50">
<path fill="#21282b" opacity="0.31" d=" M 37.76 298.79 C 42.76 297.64 47.98 297.74 52.96 299.00 C 47.89 298.91 42.82 298.96 37.76 298.79 Z" />
</g>
<g id="#15181b48">
<path fill="#15181b" opacity="0.28" d=" M 314.77 298.22 C 321.24 298.03 327.80 297.42 334.19 298.87 C 327.71 298.91 321.16 299.51 314.77 298.22 Z" />
</g>
<g id="#0a394bfd">
<path fill="#0a394b" opacity="1.00" d=" M 1.75 331.93 C 6.13 314.96 21.03 302.62 37.76 298.79 C 42.82 298.96 47.89 298.91 52.96 299.00 C 54.21 299.49 55.48 299.95 56.77 300.37 C 68.08 303.48 77.75 311.00 83.78 321.07 C 84.48 322.11 85.17 323.14 85.84 324.20 C 86.98 328.04 88.19 331.86 89.32 335.71 C 89.20 340.54 89.13 345.39 89.18 350.23 C 86.18 370.27 68.09 385.95 48.01 387.26 C 46.25 387.26 42.74 387.27 40.98 387.27 C 22.74 385.30 6.92 371.69 1.73 354.11 C 2.29 352.71 2.54 350.79 1.03 349.89 C 1.03 345.61 1.02 341.35 1.07 337.09 C 2.57 335.75 2.35 333.64 1.75 331.93 M 42.39 318.39 C 34.04 319.97 30.19 331.61 36.22 337.78 C 42.10 344.71 55.76 341.21 57.04 332.00 C 58.64 324.29 50.19 315.61 42.39 318.39 M 31.33 348.34 C 26.52 351.77 21.16 359.01 23.97 363.99 C 35.47 366.15 54.63 365.35 65.94 363.99 C 70.45 363.44 65.72 357.54 65.72 355.29 C 59.06 343.76 42.41 342.43 31.33 348.34 Z" />
</g>
<g id="#53646489">
<path fill="#536464" opacity="0.54" d=" M 52.96 299.00 C 55.74 299.17 58.52 299.30 61.31 299.41 C 59.81 299.77 58.29 300.08 56.77 300.37 C 55.48 299.95 54.21 299.49 52.96 299.00 Z" />
</g>
<g id="#0e10123b">
<path fill="#0e1012" opacity="0.23" d=" M 122.07 312.93 C 122.21 312.51 122.48 311.67 122.61 311.25 C 136.34 312.81 150.19 311.68 163.97 311.99 L 164.00 312.96 C 150.02 313.03 136.04 313.09 122.07 312.93 Z" />
</g>
<g id="#28303ce0">
<path fill="#28303c" opacity="0.88" d=" M 206.73 313.27 C 223.24 312.76 239.78 312.85 256.29 313.35 C 239.94 314.77 223.03 314.31 206.73 313.27 Z" />
</g>
<g id="#7faca8dc">
<path fill="#7faca8" opacity="0.86" d=" M 83.78 321.07 C 84.41 319.01 84.94 316.89 86.00 315.01 C 85.89 318.07 85.86 321.10 85.84 324.20 C 85.17 323.14 84.48 322.11 83.78 321.07 Z" />
</g>
<g id="#1caa9cff">
<path fill="#1caa9c" opacity="1.00" d=" M 42.39 318.39 C 50.19 315.61 58.64 324.29 57.04 332.00 C 55.76 341.21 42.10 344.71 36.22 337.78 C 30.19 331.61 34.04 319.97 42.39 318.39 Z" />
</g>
<g id="#e9731dff">
<path fill="#e9731d" opacity="1.00" d=" M 315.01 326.06 C 317.03 319.58 324.84 315.55 331.03 318.98 C 340.49 321.98 339.90 336.53 331.37 340.40 C 325.59 342.39 316.84 340.57 315.01 333.94 C 314.98 331.31 314.98 328.68 315.01 326.06 Z" />
</g>
<g id="#704328ff">
<path fill="#704328" opacity="1.00" d=" M 315.01 333.94 C 313.29 333.55 313.30 326.44 315.01 326.06 C 314.98 328.68 314.98 331.31 315.01 333.94 Z" />
</g>
<g id="#252a2d6f">
<path fill="#252a2d" opacity="0.44" d=" M 101.51 330.98 C 102.15 332.16 102.19 333.52 102.01 334.83 C 100.16 334.96 100.41 331.81 101.51 330.98 Z" />
</g>
<g id="#242d2f5d">
<path fill="#242d2f" opacity="0.36" d=" M 1.07 337.09 C 0.52 335.35 0.55 333.39 1.75 331.93 C 2.35 333.64 2.57 335.75 1.07 337.09 Z" />
</g>
<g id="#4a5d62bb">
<path fill="#4a5d62" opacity="0.73" d=" M 89.32 335.71 C 90.80 340.41 89.97 345.47 89.18 350.23 C 89.13 345.39 89.20 340.54 89.32 335.71 Z" />
</g>
<g id="#373a4190">
<path fill="#373a41" opacity="0.56" d=" M 370.32 335.75 C 370.96 340.86 371.59 346.14 370.09 351.19 C 370.07 346.04 370.16 340.88 370.32 335.75 Z" />
</g>
<g id="#a2b1b5f8">
<path fill="#a2b1b5" opacity="0.97" d=" M 0.00 336.90 L 1.07 337.09 C 1.02 341.35 1.03 345.61 1.03 349.89 L 0.00 350.16 L 0.00 336.90 Z" />
</g>
<g id="#3f454cb9">
<path fill="#3f454c" opacity="0.73" d=" M 103.01 338.00 C 127.33 337.99 151.66 338.01 175.99 337.99 C 153.63 340.30 127.02 338.43 103.03 338.95 L 103.01 338.00 Z" />
</g>
<g id="#454b52be">
<path fill="#454b52" opacity="0.75" d=" M 194.69 338.27 C 220.85 338.14 247.14 337.14 273.23 338.78 C 247.08 338.79 220.70 339.86 194.69 338.27 Z" />
</g>
<g id="#1bab9dff">
<path fill="#1bab9d" opacity="1.00" d=" M 31.33 348.34 C 42.41 342.43 59.06 343.76 65.72 355.29 C 65.72 357.54 70.45 363.44 65.94 363.99 C 51.95 364.03 37.96 363.99 23.97 363.99 C 21.16 359.01 26.52 351.77 31.33 348.34 Z" />
</g>
<g id="#a9683cff">
<path fill="#a9683c" opacity="1.00" d=" M 319.98 345.98 C 321.71 344.61 330.99 343.56 333.05 345.99 C 328.68 345.97 324.33 345.98 319.98 345.98 Z" />
</g>
<g id="#eb721bff">
<path fill="#eb721b" opacity="1.00" d=" M 304.98 363.99 C 300.93 356.36 311.69 346.68 319.98 345.98 C 324.33 345.98 328.68 345.97 333.05 345.99 C 340.75 346.60 351.69 355.86 347.78 363.98 C 333.51 364.02 319.24 364.00 304.98 363.99 Z" />
</g>
<g id="#2b2f3479">
<path fill="#2b2f34" opacity="0.47" d=" M 282.36 348.83 C 283.45 350.02 283.38 351.72 282.75 353.13 C 281.49 352.00 281.61 350.21 282.36 348.83 Z" />
</g>
<g id="#3d424567">
<path fill="#3d4245" opacity="0.40" d=" M 1.03 349.89 C 2.54 350.79 2.29 352.71 1.73 354.11 C 0.69 352.96 0.45 351.31 1.03 349.89 Z" />
</g>
<g id="#197b7bff">
<path fill="#197b7b" opacity="1.00" d=" M 23.97 363.99 C 37.96 363.99 51.95 364.03 65.94 363.99 C 54.63 365.35 35.47 366.15 23.97 363.99 Z" />
</g>
<g id="#884f28ff">
<path fill="#884f28" opacity="1.00" d=" M 304.98 363.99 C 319.24 364.00 333.51 364.02 347.78 363.98 C 336.11 366.25 318.88 364.52 305.04 364.94 L 304.98 363.99 Z" />
</g>
<g id="#474e56b8">
<path fill="#474e56" opacity="0.72" d=" M 325.03 387.06 C 328.33 385.86 331.82 386.12 335.30 386.35 C 332.75 386.98 330.13 387.43 327.59 388.00 L 324.79 388.00 L 325.03 387.06 Z" />
</g>
<g id="#a4b3b9fd">
<path fill="#a4b3b9" opacity="1.00" d=" M 40.98 387.27 C 42.74 387.27 46.25 387.26 48.01 387.26 L 47.83 388.00 L 41.16 388.00 L 40.98 387.27 Z" />
</g>
</svg>
